<mxfile host="Electron" modified="2023-11-17T08:13:13.480Z" agent="Mozilla/5.0 (Windows NT 10.0; Win64; x64) AppleWebKit/537.36 (KHTML, like Gecko) draw.io/21.4.0 Chrome/112.0.5615.204 Electron/24.5.1 Safari/537.36" etag="j96fkSobU33WxQQ1m_mC" version="21.4.0" type="device">
  <diagram name="Page-1" id="11vAXlKRO8dN1wXYcJ1v">
    <mxGraphModel dx="714" dy="418" grid="1" gridSize="10" guides="1" tooltips="1" connect="1" arrows="1" fold="1" page="1" pageScale="1" pageWidth="850" pageHeight="1100" math="0" shadow="0">
      <root>
        <mxCell id="0" />
        <mxCell id="1" parent="0" />
        <mxCell id="XoFT-1iytOHAR8GibqdN-1" value="Client" style="rounded=0;whiteSpace=wrap;html=1;fillColor=#60a917;fontColor=#ffffff;strokeColor=#2D7600;" vertex="1" parent="1">
          <mxGeometry x="160" y="330" width="100" height="60" as="geometry" />
        </mxCell>
        <mxCell id="XoFT-1iytOHAR8GibqdN-2" value="Server" style="rounded=0;whiteSpace=wrap;html=1;fillColor=#1ba1e2;fontColor=#ffffff;strokeColor=#006EAF;" vertex="1" parent="1">
          <mxGeometry x="320" y="330" width="100" height="60" as="geometry" />
        </mxCell>
        <mxCell id="XoFT-1iytOHAR8GibqdN-3" value="Data Source" style="rounded=0;whiteSpace=wrap;html=1;fillColor=#d80073;fontColor=#ffffff;strokeColor=#A50040;" vertex="1" parent="1">
          <mxGeometry x="480" y="330" width="100" height="60" as="geometry" />
        </mxCell>
        <mxCell id="XoFT-1iytOHAR8GibqdN-4" value="" style="rounded=0;whiteSpace=wrap;html=1;fillColor=#60a917;fontColor=#ffffff;strokeColor=#2D7600;" vertex="1" parent="1">
          <mxGeometry x="200" y="410" width="20" height="190" as="geometry" />
        </mxCell>
        <mxCell id="XoFT-1iytOHAR8GibqdN-5" value="" style="rounded=0;whiteSpace=wrap;html=1;fillColor=#d80073;fontColor=#ffffff;strokeColor=#A50040;" vertex="1" parent="1">
          <mxGeometry x="520" y="410" width="20" height="190" as="geometry" />
        </mxCell>
        <mxCell id="XoFT-1iytOHAR8GibqdN-6" value="" style="rounded=0;whiteSpace=wrap;html=1;fillColor=#1ba1e2;fontColor=#ffffff;strokeColor=#006EAF;" vertex="1" parent="1">
          <mxGeometry x="360" y="440" width="20" height="140" as="geometry" />
        </mxCell>
        <mxCell id="XoFT-1iytOHAR8GibqdN-8" value="" style="endArrow=none;dashed=1;html=1;rounded=0;exitX=0.5;exitY=0;exitDx=0;exitDy=0;entryX=0.5;entryY=1;entryDx=0;entryDy=0;fillColor=#1ba1e2;strokeColor=#006EAF;" edge="1" parent="1" source="XoFT-1iytOHAR8GibqdN-6" target="XoFT-1iytOHAR8GibqdN-2">
          <mxGeometry width="50" height="50" relative="1" as="geometry">
            <mxPoint x="440" y="360" as="sourcePoint" />
            <mxPoint x="490" y="310" as="targetPoint" />
          </mxGeometry>
        </mxCell>
        <mxCell id="XoFT-1iytOHAR8GibqdN-9" value="" style="endArrow=classic;html=1;rounded=0;exitX=1.011;exitY=0.164;exitDx=0;exitDy=0;exitPerimeter=0;entryX=0;entryY=0;entryDx=0;entryDy=0;" edge="1" parent="1" source="XoFT-1iytOHAR8GibqdN-4" target="XoFT-1iytOHAR8GibqdN-6">
          <mxGeometry width="50" height="50" relative="1" as="geometry">
            <mxPoint x="221" y="443" as="sourcePoint" />
            <mxPoint x="360" y="442" as="targetPoint" />
          </mxGeometry>
        </mxCell>
        <mxCell id="XoFT-1iytOHAR8GibqdN-10" value="Subscribe" style="text;html=1;strokeColor=none;fillColor=none;align=center;verticalAlign=middle;whiteSpace=wrap;rounded=0;" vertex="1" parent="1">
          <mxGeometry x="260" y="410" width="60" height="30" as="geometry" />
        </mxCell>
        <mxCell id="XoFT-1iytOHAR8GibqdN-11" value="" style="endArrow=none;dashed=1;html=1;rounded=0;exitX=0.5;exitY=0;exitDx=0;exitDy=0;entryX=0.5;entryY=1;entryDx=0;entryDy=0;" edge="1" parent="1" source="XoFT-1iytOHAR8GibqdN-4" target="XoFT-1iytOHAR8GibqdN-1">
          <mxGeometry width="50" height="50" relative="1" as="geometry">
            <mxPoint x="270" y="420" as="sourcePoint" />
            <mxPoint x="320" y="370" as="targetPoint" />
          </mxGeometry>
        </mxCell>
        <mxCell id="XoFT-1iytOHAR8GibqdN-12" value="" style="endArrow=none;dashed=1;html=1;rounded=0;exitX=0.5;exitY=0;exitDx=0;exitDy=0;entryX=0.5;entryY=1;entryDx=0;entryDy=0;" edge="1" parent="1">
          <mxGeometry width="50" height="50" relative="1" as="geometry">
            <mxPoint x="529.76" y="400" as="sourcePoint" />
            <mxPoint x="529.76" y="380" as="targetPoint" />
          </mxGeometry>
        </mxCell>
        <mxCell id="XoFT-1iytOHAR8GibqdN-13" value="" style="endArrow=classic;html=1;rounded=0;exitX=-0.063;exitY=0.209;exitDx=0;exitDy=0;exitPerimeter=0;entryX=1.111;entryY=0.316;entryDx=0;entryDy=0;entryPerimeter=0;" edge="1" parent="1" source="XoFT-1iytOHAR8GibqdN-6" target="XoFT-1iytOHAR8GibqdN-4">
          <mxGeometry width="50" height="50" relative="1" as="geometry">
            <mxPoint x="240" y="550" as="sourcePoint" />
            <mxPoint x="290" y="500" as="targetPoint" />
          </mxGeometry>
        </mxCell>
        <mxCell id="XoFT-1iytOHAR8GibqdN-14" value="Send data" style="text;html=1;strokeColor=none;fillColor=none;align=center;verticalAlign=middle;whiteSpace=wrap;rounded=0;" vertex="1" parent="1">
          <mxGeometry x="260" y="440" width="60" height="30" as="geometry" />
        </mxCell>
        <mxCell id="XoFT-1iytOHAR8GibqdN-15" value="" style="endArrow=classic;html=1;rounded=0;exitX=-0.063;exitY=0.209;exitDx=0;exitDy=0;exitPerimeter=0;entryX=1.004;entryY=0.258;entryDx=0;entryDy=0;entryPerimeter=0;" edge="1" parent="1">
          <mxGeometry width="50" height="50" relative="1" as="geometry">
            <mxPoint x="519" y="470" as="sourcePoint" />
            <mxPoint x="380" y="470" as="targetPoint" />
          </mxGeometry>
        </mxCell>
        <mxCell id="XoFT-1iytOHAR8GibqdN-16" value="New data" style="text;html=1;strokeColor=none;fillColor=none;align=center;verticalAlign=middle;whiteSpace=wrap;rounded=0;" vertex="1" parent="1">
          <mxGeometry x="420" y="440" width="60" height="30" as="geometry" />
        </mxCell>
        <mxCell id="XoFT-1iytOHAR8GibqdN-17" value="Send data" style="text;html=1;strokeColor=none;fillColor=none;align=center;verticalAlign=middle;whiteSpace=wrap;rounded=0;" vertex="1" parent="1">
          <mxGeometry x="260" y="480" width="60" height="30" as="geometry" />
        </mxCell>
        <mxCell id="XoFT-1iytOHAR8GibqdN-18" value="" style="endArrow=classic;html=1;rounded=0;exitX=-0.063;exitY=0.209;exitDx=0;exitDy=0;exitPerimeter=0;entryX=1.004;entryY=0.258;entryDx=0;entryDy=0;entryPerimeter=0;" edge="1" parent="1">
          <mxGeometry width="50" height="50" relative="1" as="geometry">
            <mxPoint x="359" y="510" as="sourcePoint" />
            <mxPoint x="220" y="510" as="targetPoint" />
          </mxGeometry>
        </mxCell>
        <mxCell id="XoFT-1iytOHAR8GibqdN-19" value="" style="endArrow=classic;html=1;rounded=0;exitX=-0.063;exitY=0.209;exitDx=0;exitDy=0;exitPerimeter=0;entryX=1.004;entryY=0.258;entryDx=0;entryDy=0;entryPerimeter=0;" edge="1" parent="1">
          <mxGeometry width="50" height="50" relative="1" as="geometry">
            <mxPoint x="520" y="510" as="sourcePoint" />
            <mxPoint x="381" y="510" as="targetPoint" />
          </mxGeometry>
        </mxCell>
        <mxCell id="XoFT-1iytOHAR8GibqdN-20" value="New data" style="text;html=1;strokeColor=none;fillColor=none;align=center;verticalAlign=middle;whiteSpace=wrap;rounded=0;" vertex="1" parent="1">
          <mxGeometry x="420" y="480" width="60" height="30" as="geometry" />
        </mxCell>
        <mxCell id="XoFT-1iytOHAR8GibqdN-21" value="" style="endArrow=classic;html=1;rounded=0;exitX=-0.063;exitY=0.209;exitDx=0;exitDy=0;exitPerimeter=0;entryX=1.004;entryY=0.258;entryDx=0;entryDy=0;entryPerimeter=0;" edge="1" parent="1">
          <mxGeometry width="50" height="50" relative="1" as="geometry">
            <mxPoint x="360" y="560" as="sourcePoint" />
            <mxPoint x="221" y="560" as="targetPoint" />
          </mxGeometry>
        </mxCell>
        <mxCell id="XoFT-1iytOHAR8GibqdN-22" value="Send data" style="text;html=1;strokeColor=none;fillColor=none;align=center;verticalAlign=middle;whiteSpace=wrap;rounded=0;" vertex="1" parent="1">
          <mxGeometry x="260" y="530" width="60" height="30" as="geometry" />
        </mxCell>
        <mxCell id="XoFT-1iytOHAR8GibqdN-23" value="" style="endArrow=classic;html=1;rounded=0;exitX=-0.063;exitY=0.209;exitDx=0;exitDy=0;exitPerimeter=0;entryX=1.004;entryY=0.258;entryDx=0;entryDy=0;entryPerimeter=0;" edge="1" parent="1">
          <mxGeometry width="50" height="50" relative="1" as="geometry">
            <mxPoint x="520" y="560" as="sourcePoint" />
            <mxPoint x="381" y="560" as="targetPoint" />
          </mxGeometry>
        </mxCell>
        <mxCell id="XoFT-1iytOHAR8GibqdN-24" value="New data" style="text;html=1;strokeColor=none;fillColor=none;align=center;verticalAlign=middle;whiteSpace=wrap;rounded=0;" vertex="1" parent="1">
          <mxGeometry x="420" y="530" width="60" height="30" as="geometry" />
        </mxCell>
        <mxCell id="XoFT-1iytOHAR8GibqdN-25" value="" style="endArrow=none;dashed=1;html=1;rounded=0;entryX=0.5;entryY=1;entryDx=0;entryDy=0;" edge="1" parent="1" target="XoFT-1iytOHAR8GibqdN-4">
          <mxGeometry width="50" height="50" relative="1" as="geometry">
            <mxPoint x="210" y="620" as="sourcePoint" />
            <mxPoint x="220" y="620" as="targetPoint" />
          </mxGeometry>
        </mxCell>
        <mxCell id="XoFT-1iytOHAR8GibqdN-26" value="" style="endArrow=none;dashed=1;html=1;rounded=0;entryX=0.5;entryY=1;entryDx=0;entryDy=0;" edge="1" parent="1" target="XoFT-1iytOHAR8GibqdN-6">
          <mxGeometry width="50" height="50" relative="1" as="geometry">
            <mxPoint x="370" y="620" as="sourcePoint" />
            <mxPoint x="220" y="610" as="targetPoint" />
          </mxGeometry>
        </mxCell>
        <mxCell id="XoFT-1iytOHAR8GibqdN-27" value="" style="endArrow=none;dashed=1;html=1;rounded=0;entryX=0.5;entryY=1;entryDx=0;entryDy=0;" edge="1" parent="1" target="XoFT-1iytOHAR8GibqdN-5">
          <mxGeometry width="50" height="50" relative="1" as="geometry">
            <mxPoint x="530" y="620" as="sourcePoint" />
            <mxPoint x="220" y="610" as="targetPoint" />
          </mxGeometry>
        </mxCell>
        <mxCell id="XoFT-1iytOHAR8GibqdN-28" value="Streaming" style="text;html=1;strokeColor=none;fillColor=none;align=center;verticalAlign=middle;whiteSpace=wrap;rounded=0;" vertex="1" parent="1">
          <mxGeometry x="340" y="290" width="60" height="30" as="geometry" />
        </mxCell>
        <mxCell id="XoFT-1iytOHAR8GibqdN-29" value="Long Held Connection" style="text;html=1;strokeColor=none;fillColor=none;align=center;verticalAlign=middle;whiteSpace=wrap;rounded=0;" vertex="1" parent="1">
          <mxGeometry x="305" y="620" width="130" height="30" as="geometry" />
        </mxCell>
      </root>
    </mxGraphModel>
  </diagram>
</mxfile>
